<?xml version="1.0" encoding="utf-8"?>
<!-- Generator: Adobe Illustrator 25.0.1, SVG Export Plug-In . SVG Version: 6.00 Build 0)  -->
<svg version="1.1" id="Layer_1" xmlns="http://www.w3.org/2000/svg" xmlns:xlink="http://www.w3.org/1999/xlink" x="0px" y="0px"
	 viewBox="0 0 84 84" style="enable-background:new 0 0 84 84;" xml:space="preserve">
<style type="text/css">
	.st0{fill:#FFFFFF;}
</style>
<g>
	<path class="st0" d="M69.61,21.62H59.41c1.05,1.58,1.62,3.43,1.63,5.38c0,0.01,0,0.02,0,0.02v25.33c0,3.83-2.21,7.15-5.42,8.75
		v15.2c0.67,0.39,1.44,0.62,2.27,0.62h7.08c2.55,0,4.61-2.14,4.61-4.76V53.45h0.03c2.63,0,4.75-2.14,4.75-4.77V26.38
		C74.34,23.75,72.24,21.62,69.61,21.62z"/>
	<path class="st0" d="M23.04,52.35V27.02c0-2,0.6-3.85,1.63-5.4H14.38c-2.61,0-4.74,2.13-4.74,4.76v22.31
		c0,2.63,2.12,4.77,4.74,4.77h0.03v18.69c0,2.62,2.07,4.76,4.62,4.76h7.08c0.86,0,1.66-0.24,2.34-0.66V61.09
		C25.24,59.5,23.04,56.18,23.04,52.35z"/>
	<path class="st0" d="M56.71,27.02L56.71,27.02c-0.01-2.64-1.9-4.84-4.4-5.31c-0.32-0.06-0.65-0.09-0.99-0.09h-2.04h-2H44v18h0
		c0,0,0,0,0,0c0,1.1-0.9,2-2,2s-2-0.9-2-2c0,0,0,0,0,0h0v-18h-3.29h-2h-1.96c-0.35,0-0.7,0.04-1.03,0.1
		c-2.47,0.48-4.35,2.67-4.35,5.3v25.33c0,2.26,1.39,4.2,3.35,5.01c0.45,0.19,0.94,0.31,1.44,0.37c0.19,0.02,0.39,0.03,0.59,0.03
		h0.03v17.87v2.96c0,2.98,2.35,5.41,5.24,5.41h8.03c2.89,0,5.24-2.43,5.24-5.41v-2.8V57.76h0.03c0.17,0,0.34-0.01,0.51-0.02
		c0.51-0.05,0.99-0.16,1.44-0.34c2.02-0.79,3.44-2.75,3.44-5.04V27.02z"/>
	<path class="st0" d="M36.76,20.02c1.56,0.89,3.36,1.4,5.28,1.4c1.92,0,3.72-0.51,5.27-1.4c3.23-1.84,5.41-5.32,5.41-9.3
		C52.73,4.78,47.94,0,42.05,0c-5.9,0-10.69,4.78-10.69,10.72C31.35,14.7,33.53,18.18,36.76,20.02z"/>
	<path class="st0" d="M19.25,21.37c4.17,0,7.55-3.39,7.55-7.56c0-4.2-3.38-7.58-7.55-7.58c-4.17,0-7.56,3.38-7.56,7.58
		C11.69,17.98,15.08,21.37,19.25,21.37z"/>
	<path class="st0" d="M64.72,21.37c4.17,0,7.55-3.39,7.55-7.56c0-4.2-3.38-7.58-7.55-7.58c-4.17,0-7.56,3.38-7.56,7.58
		C57.16,17.98,60.55,21.37,64.72,21.37z"/>
</g>
</svg>
