<?xml version="1.0" encoding="utf-8"?>
<!-- Generator: Adobe Illustrator 25.0.1, SVG Export Plug-In . SVG Version: 6.00 Build 0)  -->
<svg version="1.1" id="Layer_1" xmlns="http://www.w3.org/2000/svg" xmlns:xlink="http://www.w3.org/1999/xlink" x="0px" y="0px"
	 viewBox="0 0 84 84" style="enable-background:new 0 0 84 84;" xml:space="preserve">
<style type="text/css">
	.st0{fill:#FFFFFF;}
</style>
<g>
	<path class="st0" d="M45.6,6.23L7.14,0.39C5.35,0.11,3.53,0.6,2.17,1.75C0.8,2.94,0,4.66,0,6.44v73.75c0,1.93,1.57,3.5,3.5,3.5
		h11.37V65.31c0-3.39,2.73-6.13,6.13-6.13h8.75c3.4,0,6.12,2.73,6.12,6.13v18.38h14.88v-71.4C50.75,9.28,48.58,6.72,45.6,6.23z
		 M19.25,51.31H14c-1.45,0-2.63-1.18-2.63-2.63s1.18-2.63,2.63-2.63h5.25c1.45,0,2.63,1.18,2.63,2.63S20.7,51.31,19.25,51.31z
		 M19.25,40.81H14c-1.45,0-2.63-1.18-2.63-2.63c0-1.45,1.18-2.63,2.63-2.63h5.25c1.45,0,2.63,1.18,2.63,2.63
		C21.87,39.64,20.7,40.81,19.25,40.81z M19.25,30.31H14c-1.45,0-2.63-1.18-2.63-2.63s1.18-2.63,2.63-2.63h5.25
		c1.45,0,2.63,1.18,2.63,2.63S20.7,30.31,19.25,30.31z M19.25,19.81H14c-1.45,0-2.63-1.18-2.63-2.63c0-1.45,1.18-2.63,2.63-2.63
		h5.25c1.45,0,2.63,1.18,2.63,2.63C21.87,18.64,20.7,19.81,19.25,19.81z M36.75,51.31H31.5c-1.45,0-2.63-1.18-2.63-2.63
		s1.18-2.63,2.63-2.63h5.25c1.45,0,2.63,1.18,2.63,2.63S38.2,51.31,36.75,51.31z M36.75,40.81H31.5c-1.45,0-2.63-1.18-2.63-2.63
		c0-1.45,1.18-2.63,2.63-2.63h5.25c1.45,0,2.63,1.18,2.63,2.63C39.38,39.64,38.2,40.81,36.75,40.81z M36.75,30.31H31.5
		c-1.45,0-2.63-1.18-2.63-2.63s1.18-2.63,2.63-2.63h5.25c1.45,0,2.63,1.18,2.63,2.63S38.2,30.31,36.75,30.31z M36.75,19.81H31.5
		c-1.45,0-2.63-1.18-2.63-2.63c0-1.45,1.18-2.63,2.63-2.63h5.25c1.45,0,2.63,1.18,2.63,2.63C39.38,18.64,38.2,19.81,36.75,19.81z"/>
	<path class="st0" d="M79.17,37.64l-24.92-5.22v51.27h23.63c3.38,0,6.13-2.75,6.13-6.13V43.62C84,40.73,82.03,38.27,79.17,37.64z
		 M70.87,73.19h-5.25c-1.45,0-2.63-1.18-2.63-2.63c0-1.45,1.18-2.63,2.63-2.63h5.25c1.45,0,2.63,1.18,2.63,2.63
		C73.5,72.01,72.32,73.19,70.87,73.19z M70.87,62.69h-5.25c-1.45,0-2.63-1.18-2.63-2.63c0-1.45,1.18-2.63,2.63-2.63h5.25
		c1.45,0,2.63,1.18,2.63,2.63C73.5,61.51,72.32,62.69,70.87,62.69z M70.87,52.19h-5.25c-1.45,0-2.63-1.18-2.63-2.63
		c0-1.45,1.18-2.63,2.63-2.63h5.25c1.45,0,2.63,1.18,2.63,2.63C73.5,51.01,72.32,52.19,70.87,52.19z"/>
</g>
</svg>
