<?xml version="1.0" encoding="utf-8"?>
<!-- Generator: Adobe Illustrator 25.0.1, SVG Export Plug-In . SVG Version: 6.00 Build 0)  -->
<svg version="1.1" id="Layer_1" xmlns="http://www.w3.org/2000/svg" xmlns:xlink="http://www.w3.org/1999/xlink" x="0px" y="0px"
	 viewBox="0 0 122 122" style="enable-background:new 0 0 122 122;" xml:space="preserve">
<style type="text/css">
	.st0{fill:#2B3C7A;}
</style>
<g>
	<path class="st0" d="M105.69,30.15H79.51c0.85-0.5,1.56-1,2.08-1.53c2.19-2.18,3.38-5.09,3.38-8.17s-1.2-5.99-3.38-8.17
		c-4.37-4.37-11.97-4.37-16.34,0c-1.59,1.59-3.04,4.9-4.25,8.41c-1.22-3.52-2.67-6.82-4.26-8.41c-4.36-4.37-11.97-4.37-16.34,0
		c-2.19,2.18-3.38,5.08-3.38,8.17s1.2,5.99,3.38,8.17c0.52,0.52,1.24,1.04,2.08,1.54H16.31c-4.19,0-7.63,3.45-7.63,7.63v15.26
		c0,4.19,3.45,7.63,7.63,7.63h1.09h3.27h3.27h33.8h6.54h33.8h3.27h3.27h1.09c4.19,0,7.63-3.45,7.63-7.63V37.78
		C113.32,33.59,109.88,30.15,105.69,30.15z M69.88,16.9c0.94-0.94,2.2-1.47,3.54-1.47c1.35,0,2.6,0.52,3.54,1.47
		c0.94,0.94,1.48,2.2,1.48,3.54c0,1.34-0.52,2.6-1.47,3.55c-1.16,1.15-6.17,2.94-11.49,4.39C66.94,23.07,68.73,18.05,69.88,16.9z
		 M45.03,16.9c0.95-0.95,2.2-1.47,3.54-1.47c1.34,0,2.6,0.52,3.54,1.47c1.16,1.16,2.94,6.17,4.4,11.49
		C51.2,26.93,46.19,25.15,45.03,24c-0.94-0.94-1.47-2.2-1.47-3.55S44.08,17.85,45.03,16.9z"/>
	<path class="st0" d="M20.67,67.21H17.4V101c0,6.63,5.36,11.99,11.99,11.99h28.34v-3.27v-3.27V67.21h-33.8H20.67z"/>
	<path class="st0" d="M98.06,67.21h-33.8v39.24v3.27v3.27h28.34c6.63,0,11.99-5.36,11.99-11.99V67.2h-3.27L98.06,67.21L98.06,67.21z
		"/>
</g>
</svg>
