<?xml version="1.0" encoding="utf-8"?>
<!-- Generator: Adobe Illustrator 25.0.1, SVG Export Plug-In . SVG Version: 6.00 Build 0)  -->
<svg version="1.1" id="Layer_1" xmlns="http://www.w3.org/2000/svg" xmlns:xlink="http://www.w3.org/1999/xlink" x="0px" y="0px"
	 viewBox="0 0 24 24" style="enable-background:new 0 0 24 24;" xml:space="preserve">
<path d="M13.71,12.01l8.94-8.94c0.46-0.46,0.46-1.22,0-1.71c-0.46-0.49-1.22-0.46-1.71,0L12,10.3L3.07,1.36
	c-0.46-0.46-1.22-0.46-1.71,0s-0.46,1.22,0,1.71l8.94,8.94l-8.94,8.94c-0.46,0.46-0.46,1.22,0,1.71C1.6,22.9,1.89,23,2.21,23
	s0.61-0.12,0.85-0.34L12,13.72l8.94,8.94C21.19,22.9,21.48,23,21.8,23s0.61-0.12,0.85-0.34c0.46-0.46,0.46-1.22,0-1.71L13.71,12.01z
	"/>
</svg>
