<?xml version="1.0" encoding="utf-8"?>
<!-- Generator: Adobe Illustrator 25.0.1, SVG Export Plug-In . SVG Version: 6.00 Build 0)  -->
<svg version="1.1" id="Layer_1" xmlns="http://www.w3.org/2000/svg" xmlns:xlink="http://www.w3.org/1999/xlink" x="0px" y="0px"
	 viewBox="0 0 42 42" style="enable-background:new 0 0 42 42;" xml:space="preserve">
<style type="text/css">
	.st0{fill:#2B3B7A;}
</style>
<path class="st0" d="M4.1,27.66c0.3-6.74,3.33-11.7,9.26-15.07c0.43,2.4,0.83,4.65,1.23,6.9c0.06,0.31,0.11,0.64,0.18,0.95
	c0.16,0.78,0.64,1.2,1.43,1.14c0.74-0.06,1.23-0.69,1.1-1.53c-0.31-2.08-0.7-4.14-1.07-6.22c-0.09-0.48-0.18-0.95-0.27-1.43
	c-0.3-1.72,0.43-2.79,2.22-2.9c1.87-0.12,3.76-0.07,5.64,0c0.51,0.02,1.05,0.32,1.51,0.6c0.65,0.38,0.96,0.9,0.77,1.77
	c-0.52,2.5-0.91,5.03-1.35,7.54c-0.05,0.26-0.08,0.51-0.1,0.77c-0.05,0.76,0.32,1.27,1.07,1.38c0.8,0.13,1.33-0.3,1.48-1.07
	c0.42-2.19,0.79-4.39,1.18-6.59c0.07-0.38,0.15-0.76,0.26-1.3c5.91,3.33,8.93,8.32,9.25,15c0.32,0.03,0.58,0.05,0.83,0.07
	c1.28,0.11,2.23,1.1,2.27,2.36c0.04,1.22-0.9,2.32-2.13,2.5c-0.22,0.03-0.46,0.02-0.68,0.02c-11.48,0-22.94,0-34.42,0.01
	c-1.06,0-1.9-0.32-2.44-1.28c-0.47-0.84-0.43-1.68,0.06-2.49C1.98,27.84,2.93,27.61,4.1,27.66z"/>
</svg>
