<?xml version="1.0" encoding="utf-8"?>
<!-- Generator: Adobe Illustrator 25.0.1, SVG Export Plug-In . SVG Version: 6.00 Build 0)  -->
<svg version="1.1" id="Layer_1" xmlns="http://www.w3.org/2000/svg" xmlns:xlink="http://www.w3.org/1999/xlink" x="0px" y="0px"
	 viewBox="0 0 42 42" style="enable-background:new 0 0 42 42;" xml:space="preserve">
<style type="text/css">
	.st0{fill:#2B3B7A;}
</style>
<g>
	<path class="st0" d="M14.28,17.95h3.15v14.08h-3.15V17.95z"/>
	<path class="st0" d="M19.42,17.95h3.15v14.08h-3.15V17.95z"/>
	<path class="st0" d="M24.57,17.95h3.15v14.08h-3.15V17.95z"/>
	<path class="st0" d="M9.14,17.95h3.15v14.08H9.14V17.95z"/>
	<path class="st0" d="M29.71,17.95h3.15v14.08h-3.15C29.71,32.03,29.71,17.95,29.71,17.95z"/>
	<path class="st0" d="M4,13.96h34v1.99H4V13.96z"/>
	<path class="st0" d="M37.24,11.97L21,4L4.76,11.97H37.24z"/>
	<path class="st0" d="M34.85,17.95H38v14.08h-3.15V17.95z"/>
	<path class="st0" d="M4,34.02h34V38H4V34.02z"/>
	<path class="st0" d="M4,17.95h3.15v14.08H4V17.95z"/>
</g>
</svg>
