<?xml version="1.0" encoding="utf-8"?>
<!-- Generator: Adobe Illustrator 25.0.1, SVG Export Plug-In . SVG Version: 6.00 Build 0)  -->
<svg version="1.1" id="Layer_1" xmlns="http://www.w3.org/2000/svg" xmlns:xlink="http://www.w3.org/1999/xlink" x="0px" y="0px"
	 viewBox="0 0 42 42" style="enable-background:new 0 0 42 42;" xml:space="preserve">
<style type="text/css">
	.st0{fill:#2B3B7A;}
</style>
<g>
	<path class="st0" d="M33.7,16.75c-2.7-2.7-6.12-4.44-9.83-5.03c0.09-0.29,0.13-0.58,0.13-0.9c0-1.66-1.35-3.01-3.01-3.01
		s-3.01,1.35-3.01,3.01c0,0.31,0.05,0.61,0.13,0.9c-3.7,0.59-7.12,2.32-9.83,5.03s-4.44,6.11-5.03,9.81h35.46
		C38.13,22.87,36.4,19.46,33.7,16.75z"/>
	<polygon class="st0" points="1,28.9 1,31.25 3.72,31.25 5.01,34.17 36.99,34.17 38.28,31.25 41,31.25 41,28.9 	"/>
</g>
</svg>
