<?xml version="1.0" encoding="utf-8"?>
<!-- Generator: Adobe Illustrator 25.0.1, SVG Export Plug-In . SVG Version: 6.00 Build 0)  -->
<svg version="1.1" id="Layer_1" xmlns="http://www.w3.org/2000/svg" xmlns:xlink="http://www.w3.org/1999/xlink" x="0px" y="0px"
	 viewBox="0 0 122 122" style="enable-background:new 0 0 122 122;" xml:space="preserve">
<style type="text/css">
	.st0{fill:#2B3C7A;}
</style>
<g>
	<circle class="st0" cx="95.51" cy="68.64" r="14.79"/>
	<path class="st0" d="M108.25,86.79c-3.6,2.54-8,4.04-12.74,4.04c-4.74,0-9.14-1.49-12.74-4.04c-3.24,1.84-6.04,4.36-8.21,7.35v7.78
		c0,3.84-1.96,7.23-4.93,9.22V113h51.75v-3.69C121.38,99.67,116.09,91.24,108.25,86.79z"/>
	<path class="st0" d="M63.46,61.25H4.31c-2.04,0-3.69,1.65-3.69,3.69v36.97c0,2.04,1.65,3.69,3.69,3.69h17.06L18.9,113h29.97
		l-2.46-7.39h17.06c2.04,0,3.69-1.65,3.69-3.69V64.94C67.16,62.9,65.5,61.25,63.46,61.25z"/>
	<path class="st0" d="M28.96,45.96h30.92l13.86,9.24c0.61,0.42,1.34,0.62,2.05,0.62c0.59,0,1.2-0.15,1.74-0.44
		c1.2-0.64,1.95-1.9,1.95-3.26v-6.16h3.69c4.76,0,8.62-3.87,8.62-8.62V17.62c0-4.76-3.87-8.62-8.62-8.62H28.96
		c-4.76,0-8.62,3.87-8.62,8.62v19.72C20.33,42.09,24.21,45.96,28.96,45.96z M38.82,23.78h34.51c2.04,0,3.69,1.65,3.69,3.69
		s-1.65,3.69-3.69,3.69H38.82c-2.04,0-3.69-1.65-3.69-3.69S36.78,23.78,38.82,23.78z"/>
</g>
</svg>
