<?xml version="1.0" encoding="utf-8"?>
<!-- Generator: Adobe Illustrator 25.0.1, SVG Export Plug-In . SVG Version: 6.00 Build 0)  -->
<svg version="1.1" id="Layer_1" xmlns="http://www.w3.org/2000/svg" xmlns:xlink="http://www.w3.org/1999/xlink" x="0px" y="0px"
	 viewBox="0 0 112 112" style="enable-background:new 0 0 112 112;" xml:space="preserve">
<style type="text/css">
	.st0{fill:#FFFFFF;}
</style>
<path class="st0" d="M56,0C25.07,0,0,25.07,0,56s25.07,56,56,56s56-25.07,56-56S86.93,0,56,0z M36.75,28c2.9,0,5.25,2.35,5.25,5.25
	s-2.35,5.25-5.25,5.25s-5.25-2.35-5.25-5.25S33.85,28,36.75,28z M42.04,76.94H31.56V41.99h10.49L42.04,76.94L42.04,76.94z
	 M84.03,76.94H73.54V57.88c0-3.91-1.13-7.82-5.73-7.82c-4.6,0-8.27,3.91-8.27,7.92v18.96H49.01V41.88h10.52v4.87
	c3.23-4.1,7.78-5.96,12.87-5.96s11.62,2.54,11.62,16.32L84.03,76.94L84.03,76.94z"/>
</svg>
