<?xml version="1.0" encoding="utf-8"?>
<!-- Generator: Adobe Illustrator 25.0.1, SVG Export Plug-In . SVG Version: 6.00 Build 0)  -->
<svg version="1.1" id="Layer_1" xmlns="http://www.w3.org/2000/svg" xmlns:xlink="http://www.w3.org/1999/xlink" x="0px" y="0px"
	 viewBox="0 0 42 42" style="enable-background:new 0 0 42 42;" xml:space="preserve">
<style type="text/css">
	.st0{fill:#2B3B7A;}
</style>
<g>
	<path class="st0" d="M10.6,17.21c0.69,0,1.37-0.11,2.03-0.32l3.9,3.89l4.27-4.27l-3.9-3.9c0.75-2.35,0.13-4.95-1.62-6.69
		c-1.25-1.25-2.9-1.93-4.66-1.93c-0.98,0-1.97,0.22-2.85,0.65C7.63,4.71,7.53,4.83,7.51,4.98s0.02,0.3,0.13,0.4l4.09,4.1
		c0.3,0.3,0.47,0.71,0.47,1.13s-0.16,0.83-0.47,1.13c-0.6,0.61-1.66,0.61-2.26,0l-4.1-4.09c-0.1-0.12-0.25-0.17-0.39-0.15
		C4.83,7.53,4.71,7.63,4.64,7.76c-1.21,2.53-0.69,5.54,1.29,7.51C7.18,16.52,8.84,17.21,10.6,17.21z"/>
	<path class="st0" d="M31.4,24.79c-0.7,0-1.38,0.11-2.03,0.32l-4.31-4.31l-4.27,4.27l4.31,4.31c-0.75,2.35-0.13,4.94,1.62,6.69
		c1.25,1.25,2.9,1.93,4.66,1.93c0.98,0,1.97-0.22,2.85-0.65c0.13-0.07,0.23-0.19,0.25-0.34s-0.02-0.3-0.12-0.39l-4.09-4.1
		c-0.3-0.3-0.47-0.71-0.47-1.12c0-0.43,0.16-0.83,0.47-1.13c0.61-0.61,1.66-0.61,2.26,0l4.1,4.09c0.11,0.11,0.25,0.15,0.39,0.12
		c0.15-0.02,0.27-0.11,0.34-0.25c1.21-2.52,0.69-5.54-1.29-7.51C34.82,25.48,33.17,24.79,31.4,24.79z"/>
	<path class="st0" d="M29.65,15.08c0,0,0.71,0.62,1.3,0.34c0.66-0.34,2.53,1.51,3.13,1.94c0,0,0.01,0,0.02,0.01l-0.33,0.33
		c-0.43,0.43-0.43,1.12,0,1.55c0.43,0.43,1.12,0.43,1.55,0l2.58-2.58c0.43-0.43,0.43-1.12,0-1.55c-0.43-0.43-1.12-0.43-1.55,0
		l-0.43,0.43c-0.35-0.49-0.95-1.33-0.88-1.61c0.31-1.21-2.16-4.08-2.16-4.08C26.74,3.69,22.63,3.83,20.68,4.5
		c-0.79,0.27-0.64,0.44,0.17,0.58c5.93,1.03,6.66,4.53,5.66,5.88c-0.39,0.52,0.18,1.15,0.18,1.15l0.21,0.21L16.9,22.34
		c0.14,0.08,0.27,0.17,0.39,0.3l1.68,1.68c0.11,0.11,0.21,0.25,0.29,0.38l10.01-10.01L29.65,15.08z"/>
	<path class="st0" d="M16.6,23.3c-0.37-0.37-1-0.39-1.39-0.05L4.09,33.22c-0.39,0.34-0.42,0.93-0.05,1.3l3.03,3.03
		c0.37,0.37,0.95,0.35,1.3-0.05l9.97-11.12c0.34-0.39,0.32-1.03-0.05-1.39L16.6,23.3z"/>
</g>
</svg>
