<?xml version="1.0" encoding="utf-8"?>
<!-- Generator: Adobe Illustrator 25.0.1, SVG Export Plug-In . SVG Version: 6.00 Build 0)  -->
<svg version="1.1" id="Layer_1" xmlns="http://www.w3.org/2000/svg" xmlns:xlink="http://www.w3.org/1999/xlink" x="0px" y="0px"
	 viewBox="0 0 496.55 337.57" style="enable-background:new 0 0 496.55 337.57;" xml:space="preserve">
<style type="text/css">
	.st0{fill:#FFFFFF;}
</style>
<g>
	<g>
		<polygon class="st0" points="19.97,276.48 7.14,257.07 0,257.07 0,295.65 8.35,295.65 8.35,273.47 19.96,290.78 31.58,273.47 
			31.58,295.65 39.93,295.65 39.93,257.07 32.86,257.07 		"/>
		<path class="st0" d="M82.2,256.3c-11.53,0-19.9,8.48-19.9,20.15c0,11.64,8.37,20.09,19.9,20.09c11.57,0,19.96-8.45,19.96-20.09
			C102.17,264.97,93.58,256.3,82.2,256.3z M82.2,264.46c6.58,0,11.36,5.05,11.36,12c0,6.91-4.78,11.93-11.36,11.93
			c-6.58,0-11.35-5.02-11.35-11.93C70.85,269.5,75.62,264.46,82.2,264.46z"/>
		<path class="st0" d="M141.88,256.3c-11.53,0-19.9,8.48-19.9,20.15c0,11.64,8.37,20.09,19.9,20.09c11.57,0,19.96-8.45,19.96-20.09
			C161.85,264.97,153.26,256.3,141.88,256.3z M141.88,264.46c6.58,0,11.36,5.05,11.36,12c0,6.91-4.78,11.93-11.36,11.93
			c-6.58,0-11.35-5.02-11.35-11.93C130.53,269.5,135.3,264.46,141.88,264.46z"/>
		<polygon class="st0" points="209.03,279.36 189.66,257.07 184.42,257.07 184.42,295.65 192.83,295.65 192.83,273.34 
			212.26,295.65 217.44,295.65 217.44,257.07 209.03,257.07 		"/>
		<path class="st0" d="M263.59,271.14c-1.84-0.2-3.58-0.31-5.12-0.4c-3.6-0.22-6.44-0.39-8.04-1.61c-0.79-0.6-0.85-1.04-0.85-1.43
			c0-1.56,2.63-3.24,6.88-3.24c4.5,0,8.75,1.59,12.64,4.72l1.72,1.39l4.92-7.06l-1.63-1.19c-5.39-3.94-11.51-6.02-17.71-6.02
			c-8.94,0-15.43,4.87-15.43,11.59c0,3.89,2.16,7.07,6.13,8.97c3.43,1.56,7.54,1.85,12.3,2.17c0.84,0.06,1.7,0.11,2.58,0.18
			c3.86,0.32,6.16,1.85,6.16,4.08c0,3.04-3.57,5.16-8.67,5.16c-4.66,0-9.68-1.91-14.13-5.38l-1.75-1.36l-4.81,7.15l1.53,1.18
			c5.66,4.38,11.95,6.5,19.23,6.5c11.87,0,17.28-6.8,17.28-13.12C276.8,276.89,271.62,272.07,263.59,271.14z"/>
		<polygon class="st0" points="291.57,265.16 306.08,265.16 306.08,295.65 314.5,295.65 314.5,265.16 329,265.16 329,257.07 
			291.57,257.07 		"/>
		<path class="st0" d="M363.04,256.3c-11.53,0-19.9,8.48-19.9,20.15c0,11.64,8.37,20.09,19.9,20.09c11.57,0,19.96-8.45,19.96-20.09
			C383,264.97,374.42,256.3,363.04,256.3z M363.04,264.46c6.58,0,11.36,5.05,11.36,12c0,6.91-4.78,11.93-11.36,11.93
			c-6.58,0-11.35-5.02-11.35-11.93C351.69,269.5,356.46,264.46,363.04,264.46z"/>
		<polygon class="st0" points="430.18,279.36 410.82,257.07 405.57,257.07 405.57,295.65 413.99,295.65 413.99,273.34 
			433.42,295.65 438.6,295.65 438.6,257.07 430.18,257.07 		"/>
		<polygon class="st0" points="472.32,287.56 472.32,279.23 486.13,279.23 486.13,271.13 472.32,271.13 472.32,265.16 
			495.15,265.16 495.15,257.07 463.91,257.07 463.91,295.65 496.55,295.65 496.55,287.56 		"/>
	</g>
	<g>
		<path class="st0" d="M164.19,320.88h9.33c3.2,0,5.1,1.69,5.1,4.41s-1.78,4.74-4.83,4.74h-7.57v7.12h-2.02V320.88z M173.39,328.12
			c2.05,0,3.11-0.93,3.11-2.65c0-1.69-1.06-2.72-3.02-2.72h-7.27v5.37H173.39z"/>
		<path class="st0" d="M191.01,320.88h12.8v1.87h-10.77v4.77h6.52v1.87h-6.52v5.89h11.44v1.87h-13.46V320.88z"/>
		<path class="st0" d="M215.24,329.06c0-4.95,3.56-8.54,8.42-8.54c4.86,0,8.45,3.59,8.45,8.54c0,4.95-3.59,8.51-8.45,8.51
			C218.8,337.57,215.24,334.01,215.24,329.06z M230,329.06c0-3.86-2.69-6.64-6.34-6.64c-3.62,0-6.34,2.78-6.34,6.64
			c0,3.86,2.71,6.61,6.34,6.61C227.32,335.67,230,332.89,230,329.06z"/>
		<path class="st0" d="M263.85,320.79h2.05v16.42h-2.05V320.79z"/>
		<path class="st0" d="M279.85,320.88h1.06l10.56,12.16v-12.16h2.02v16.27h-1.02l-10.59-12.16v12.16h-2.02V320.88z"/>
		<path class="st0" d="M322.01,333.17c-1.51,2.84-4.19,4.41-7.48,4.41c-4.86,0-8.42-3.56-8.42-8.51c0-4.95,3.56-8.54,8.42-8.54
			c3.02,0,5.58,1.39,7.12,3.8l-1.69,1.21c-1.03-1.96-3.08-3.11-5.43-3.11c-3.62,0-6.34,2.78-6.34,6.64c0,3.86,2.71,6.61,6.34,6.61
			c2.54,0,4.56-1.27,5.85-3.71L322.01,333.17z"/>
		<path class="st0" d="M332.36,336.24c0,0.82-0.54,1.33-1.21,1.33c-0.66,0-1.24-0.51-1.24-1.33c0-0.81,0.57-1.36,1.24-1.36
			C331.82,334.88,332.36,335.43,332.36,336.24z"/>
	</g>
	<g>
		<g>
			<path class="st0" d="M319.44,77.04V26.53L245.96,65.3l-73.48-38.78v48.91l-52.46-27.7v167.93h74.9V112.64l50.94,26.9l51.15-25.96
				v102.09h79.51V48.06L319.44,77.04z M319.44,193.23v-91.04l34.64-17.59v108.63H319.44z M142.45,193.23V84.94l30.03,15.86v92.44
				H142.45z"/>
			<polygon class="st0" points="301.96,18.87 245.8,45.99 189.93,19.02 189.93,0 245.8,26.98 301.71,0 			"/>
		</g>
	</g>
</g>
</svg>
