<?xml version="1.0" encoding="utf-8"?>
<!-- Generator: Adobe Illustrator 25.0.1, SVG Export Plug-In . SVG Version: 6.00 Build 0)  -->
<svg version="1.1" id="Layer_1" xmlns="http://www.w3.org/2000/svg" xmlns:xlink="http://www.w3.org/1999/xlink" x="0px" y="0px"
	 viewBox="0 0 470.61 90.5" style="enable-background:new 0 0 470.61 90.5;" xml:space="preserve">
<style type="text/css">
	.st0{fill:#28387E;}
</style>
<g>
	<g>
		<polygon class="st0" points="161.78,55.99 153.46,43.4 148.84,43.4 148.84,68.41 154.25,68.41 154.25,54.03 161.77,65.25 
			169.3,54.03 169.3,68.41 174.71,68.41 174.71,43.4 170.13,43.4 		"/>
		<path class="st0" d="M202.1,42.91c-7.47,0-12.9,5.49-12.9,13.06c0,7.54,5.42,13.02,12.9,13.02c7.5,0,12.94-5.48,12.94-13.02
			C215.04,48.52,209.48,42.91,202.1,42.91z M202.1,48.19c4.26,0,7.36,3.27,7.36,7.77c0,4.48-3.1,7.73-7.36,7.73
			c-4.26,0-7.36-3.25-7.36-7.73C194.75,51.46,197.84,48.19,202.1,48.19z"/>
		<path class="st0" d="M240.78,42.91c-7.47,0-12.9,5.49-12.9,13.06c0,7.54,5.42,13.02,12.9,13.02c7.5,0,12.94-5.48,12.94-13.02
			C253.72,48.52,248.15,42.91,240.78,42.91z M240.78,48.19c4.26,0,7.36,3.27,7.36,7.77c0,4.48-3.1,7.73-7.36,7.73
			c-4.26,0-7.36-3.25-7.36-7.73C233.42,51.46,236.51,48.19,240.78,48.19z"/>
		<polygon class="st0" points="284.29,57.85 271.74,43.4 268.34,43.4 268.34,68.41 273.79,68.41 273.79,53.95 286.38,68.41 
			289.74,68.41 289.74,43.4 284.29,43.4 		"/>
		<path class="st0" d="M319.65,52.53c-1.19-0.13-2.32-0.2-3.32-0.26c-2.33-0.14-4.17-0.25-5.21-1.04c-0.51-0.39-0.55-0.67-0.55-0.93
			c0-1.01,1.7-2.1,4.46-2.1c2.92,0,5.67,1.03,8.19,3.06l1.12,0.9l3.19-4.57l-1.06-0.77c-3.49-2.55-7.46-3.9-11.48-3.9
			c-5.79,0-10,3.16-10,7.51c0,2.52,1.4,4.58,3.97,5.82c2.22,1.01,4.88,1.2,7.97,1.41c0.54,0.04,1.1,0.07,1.67,0.12
			c2.5,0.21,3.99,1.2,3.99,2.64c0,1.97-2.31,3.34-5.62,3.34c-3.02,0-6.27-1.24-9.16-3.49l-1.13-0.88l-3.12,4.64l0.99,0.77
			c3.67,2.84,7.74,4.21,12.46,4.21c7.69,0,11.2-4.41,11.2-8.5C328.21,56.25,324.85,53.12,319.65,52.53z"/>
		<polygon class="st0" points="337.78,48.65 347.18,48.65 347.18,68.41 352.63,68.41 352.63,48.65 362.04,48.65 362.04,43.4 
			337.78,43.4 		"/>
		<path class="st0" d="M384.09,42.91c-7.47,0-12.9,5.49-12.9,13.06c0,7.54,5.42,13.02,12.9,13.02c7.5,0,12.94-5.48,12.94-13.02
			C397.03,48.52,391.47,42.91,384.09,42.91z M384.09,48.19c4.26,0,7.36,3.27,7.36,7.77c0,4.48-3.1,7.73-7.36,7.73
			c-4.26,0-7.36-3.25-7.36-7.73C376.73,51.46,379.83,48.19,384.09,48.19z"/>
		<polygon class="st0" points="427.6,57.85 415.05,43.4 411.65,43.4 411.65,68.41 417.11,68.41 417.11,53.95 429.7,68.41 
			433.05,68.41 433.05,43.4 427.6,43.4 		"/>
		<polygon class="st0" points="454.91,63.16 454.91,57.76 463.86,57.76 463.86,52.52 454.91,52.52 454.91,48.65 469.7,48.65 
			469.7,43.4 449.46,43.4 449.46,68.41 470.61,68.41 470.61,63.16 		"/>
	</g>
	<g>
		<g>
			<path class="st0" d="M83.68,32.33v-21.2L52.85,27.4L22.01,11.13v20.52L0,20.03V90.5h31.43V47.26L52.8,58.55l21.46-10.9V90.5
				h33.36V20.17L83.68,32.33z M83.68,81.08v-38.2l14.54-7.38v45.58H83.68z M9.41,81.08V35.64l12.6,6.65v38.79H9.41z"/>
			<polygon class="st0" points="76.35,7.92 52.78,19.3 29.34,7.98 29.34,0 52.78,11.32 76.24,0 			"/>
		</g>
	</g>
</g>
</svg>
