<?xml version="1.0" encoding="utf-8"?>
<!-- Generator: Adobe Illustrator 25.0.1, SVG Export Plug-In . SVG Version: 6.00 Build 0)  -->
<svg version="1.1" id="Layer_1" xmlns="http://www.w3.org/2000/svg" xmlns:xlink="http://www.w3.org/1999/xlink" x="0px" y="0px"
	 viewBox="0 0 42 42" style="enable-background:new 0 0 42 42;" xml:space="preserve">
<style type="text/css">
	.st0{fill:#2B3B7A;}
</style>
<g>
	<path class="st0" d="M21,16.02c3.3,0,5.97-2.68,5.97-5.97S24.3,4,21,4s-5.97,2.74-5.97,6.04S17.69,16.02,21,16.02z"/>
	<path class="st0" d="M25.45,24.55c-2.6,0-3.48,3.1-3.5,3.13c0,0.01-0.02,0.02-0.02,0.02l0,0c-0.13,0.41-0.5,0.7-0.94,0.7l0,0
		c-0.45,0-0.83-0.3-0.96-0.73c-0.03-0.13-0.92-3.13-3.5-3.13c-1.98,0-3.46,1.65-3.46,3.84c0,2.61,2.35,5.22,6.24,8.51
		c0.33,0.28,0.67,0.57,1.03,0.87c0.37,0.32,0.91,0.32,1.29,0c0.35-0.3,0.69-0.58,1.02-0.87c2.96-2.5,6.24-5.71,6.24-8.51
		C28.91,26.21,27.42,24.55,25.45,24.55z"/>
	<path class="st0" d="M26.08,16.12c-1.38,1.17-3.12,1.89-5.08,1.89s-3.71-0.72-5.08-1.89c-5.58,0.56-9.86,5.25-9.86,10.92v1.39
		c0,3.23,1.25,6.26,3.53,8.52c0,0.02,0,0.02,0.02,0.02c0.62,0.62,1.47,0.98,2.35,1c1.46-0.04,2.63-1.14,2.83-2.57
		c-1.85-1.91-3.69-4.35-3.69-7.03c0-3.4,2.6-5.83,5.44-5.83c0,0,0,0,0.01,0l0,0c1.88,0,3.44,1.03,4.45,2.54
		c1.02-1.52,2.55-2.54,4.45-2.54l0,0c0,0,0,0,0.01,0c3.02,0,5.44,2.59,5.44,5.83c-0.1,0.25,0.4,2.71-3.69,7
		c0.19,1.43,1.37,2.55,2.83,2.59c0.87-0.02,1.73-0.38,2.35-1c0.02,0,0.02,0,0.02-0.02c2.27-2.27,3.53-5.3,3.53-8.52v-1.39
		C35.94,21.36,31.66,16.68,26.08,16.12z"/>
</g>
</svg>
