<?xml version="1.0" encoding="utf-8"?>
<!-- Generator: Adobe Illustrator 25.0.1, SVG Export Plug-In . SVG Version: 6.00 Build 0)  -->
<svg version="1.1" id="Layer_1" xmlns="http://www.w3.org/2000/svg" xmlns:xlink="http://www.w3.org/1999/xlink" x="0px" y="0px"
	 viewBox="0 0 122 122" style="enable-background:new 0 0 122 122;" xml:space="preserve">
<style type="text/css">
	.st0{fill:#2B3B7A;}
</style>
<g>
	<path class="st0" d="M36.88,78.08v2.01l9.69,12.34l9.69-12.34v-2.01c-2.98,1.3-6.25,2.01-9.69,2.01
		C43.13,80.1,39.86,79.38,36.88,78.08z"/>
	<path class="st0" d="M64.86,55.71v-8.35c-1.01,0.14-2.04,0.22-3.04,0.22c-6.56,0-12.57-3.03-16.43-8.12H32.36
		c-1.39,0-2.74-0.14-4.07-0.39v16.64C28.29,65.81,36.47,74,46.58,74S64.86,65.82,64.86,55.71z"/>
	<path class="st0" d="M32.36,33.37h16.4l0.04,0.09c2.93,5.86,9.35,9.1,16.06,7.73V28.3c0-7.29-5.91-13.2-13.2-13.2h-13.2
		c-5.89,0-11.74-1.94-16.45-5.48c-1.07-0.8-2.54-0.83-3.65-0.01c-0.79,0.59-1.23,1.54-1.23,2.53v6.01
		C17.12,26.55,23.94,33.37,32.36,33.37z"/>
	<path class="st0" d="M93.56,93.57v6.52c1.14-0.66,1.82-1.82,2.01-2.92C95.7,96.39,95.76,94.49,93.56,93.57z"/>
	<path class="st0" d="M88.42,84.94c-0.16,0.86,0.04,1.66,0.52,2.04c0.17,0.14,0.36,0.26,0.55,0.39v-4.25
		C88.88,83.6,88.54,84.32,88.42,84.94z"/>
	<path class="st0" d="M64.25,91.67c0-3.36,0.61-6.57,1.71-9.55h-3.55L48.96,99.24c-0.58,0.73-1.46,1.17-2.4,1.17
		c-0.94,0-1.82-0.43-2.4-1.17L30.73,82.12h-4.47C16.73,82.12,9,89.86,9,99.4v10.56c0,1.68,1.36,3.04,3.04,3.04h62.41
		C68.24,107.97,64.25,100.28,64.25,91.67z"/>
	<path class="st0" d="M91.67,70.34c-11.78,0-21.33,9.55-21.33,21.33S79.89,113,91.67,113S113,103.45,113,91.67
		S103.45,70.34,91.67,70.34z M99.58,97.85c-0.48,2.84-2.64,5.73-6.02,6.58v1.46c0,1.13-0.91,2.03-2.03,2.03
		c-1.13,0-2.03-0.91-2.03-2.03v-1.26c-1.64-0.14-3-0.59-4.93-1.84c-0.94-0.61-1.2-1.88-0.59-2.81c0.61-0.94,1.88-1.2,2.81-0.59
		c1.1,0.72,1.78,1.03,2.7,1.16v-8.58c-1.3-0.6-2.27-1.17-3.06-1.79c-1.69-1.32-2.46-3.61-2.01-5.98c0.49-2.58,2.28-4.64,4.69-5.36
		c0.13-0.04,0.26-0.08,0.38-0.11v-1.26c0-1.13,0.91-2.03,2.03-2.03c1.13,0,2.03,0.91,2.03,2.03v1.04c1.97,0.34,3.37,1.31,4.04,2.09
		c0.73,0.84,0.65,2.13-0.2,2.86c-0.84,0.73-2.11,0.65-2.86-0.19c-0.04-0.04-0.37-0.36-0.99-0.59v6.56c0.36,0.14,0.72,0.26,1.07,0.39
		C98.21,90.9,100.2,94.2,99.58,97.85L99.58,97.85z"/>
	<path class="st0" d="M77.04,47.59c0-3.37-2.73-6.1-6.1-6.1v12.19C74.32,53.69,77.04,50.96,77.04,47.59z"/>
	<path class="st0" d="M22.2,53.69V41.5c-3.37,0-6.1,2.73-6.1,6.1S18.84,53.69,22.2,53.69z"/>
</g>
</svg>
