<?xml version="1.0" encoding="utf-8"?>
<!-- Generator: Adobe Illustrator 25.0.1, SVG Export Plug-In . SVG Version: 6.00 Build 0)  -->
<svg version="1.1" id="Layer_1" xmlns="http://www.w3.org/2000/svg" xmlns:xlink="http://www.w3.org/1999/xlink" x="0px" y="0px"
	 viewBox="0 0 42 42" style="enable-background:new 0 0 42 42;" xml:space="preserve">
<style type="text/css">
	.st0{fill:#2B3B7A;}
</style>
<g>
	<path class="st0" d="M7.71,14.71c0.33,0.55,1.1,0.65,1.56,0.19l0.7-0.7l5.39,5.38l4.22-4.22L14.2,9.97l0.7-0.7
		c0.46-0.46,0.36-1.22-0.19-1.56l-5.33-3.2c-1.4-0.84-3.18-0.62-4.33,0.53C3.89,6.19,3.67,7.98,4.51,9.38L7.71,14.71z"/>
	<path class="st0" d="M28.68,17.54c2.51,0.89,5.36,0.28,7.27-1.64c2.09-2.09,2.63-5.28,1.36-7.93c-0.29-0.62-1.12-0.77-1.6-0.28
		l-2.57,2.57c-0.38,0.38-1.03,0.38-1.41,0c-0.39-0.39-0.39-1.02,0-1.41l2.57-2.57c0.49-0.49,0.35-1.3-0.28-1.6
		c-2.66-1.27-5.85-0.73-7.93,1.36c-1.92,1.91-2.53,4.76-1.64,7.27L13.32,24.46c-2.51-0.9-5.36-0.28-7.27,1.64
		c-2.09,2.09-2.63,5.28-1.36,7.93c0.3,0.62,1.12,0.76,1.6,0.28l2.57-2.57c0.39-0.39,1.02-0.39,1.41,0c0.39,0.39,0.39,1.01,0,1.41
		l-2.57,2.57c-0.49,0.49-0.35,1.3,0.28,1.6c0.96,0.46,1.98,0.68,3,0.68c1.81,0,3.6-0.7,4.94-2.04c1.92-1.91,2.53-4.76,1.64-7.27
		L28.68,17.54z"/>
	<path class="st0" d="M27.33,21.79l-5.63,5.63c2.78,3.58,4.48,5.89,7.63,9.05c1.04,1.04,2.41,1.51,3.76,1.51c1,0,1.98-0.23,2.8-0.83
		c1.2-0.87,1.96-2.2,2.07-3.66c0.12-1.46-0.4-2.89-1.44-3.93C33.15,26.21,31.3,24.87,27.33,21.79z M33.66,33.66
		c-0.4,0.36-1.01,0.32-1.39-0.06l-3.94-3.94c-0.38-0.38-0.41-1-0.06-1.39c0.39-0.42,1.04-0.44,1.44-0.03l3.98,3.98
		C34.1,32.62,34.08,33.28,33.66,33.66z"/>
</g>
</svg>
