<?xml version="1.0" encoding="utf-8"?>
<!-- Generator: Adobe Illustrator 25.0.1, SVG Export Plug-In . SVG Version: 6.00 Build 0)  -->
<svg version="1.1" id="Layer_1" xmlns="http://www.w3.org/2000/svg" xmlns:xlink="http://www.w3.org/1999/xlink" x="0px" y="0px"
	 viewBox="0 0 42 42" style="enable-background:new 0 0 42 42;" xml:space="preserve">
<style type="text/css">
	.st0{fill:#2B3B7A;}
</style>
<g>
	<path class="st0" d="M23.98,37.96h5.97v-4.05h-1.98v-1.99h1.99v-5.97h-5.97L23.98,37.96L23.98,37.96z"/>
	<path class="st0" d="M12.04,25.95h9.95v5.97h-9.95V25.95z"/>
	<path class="st0" d="M35.92,20.83l-2.99,1.49l-3.98-1.99l-3.98,1.99l-3.98-1.99L17,22.32l-3.98-1.99l-3.98,1.99l-2.99-1.49v15.13
		H4.02v1.99c0.32,0,18.48,0,17.97,0V33.9H10.06v-9.94c0.45,0,22.84,0,21.89,0c0,0.36,0,14.93,0,14c1.93,0,6.28,0,6.04,0v-1.99h-2.06
		L35.92,20.83L35.92,20.83z"/>
	<path class="st0" d="M29.67,14.01h7.84l-2.72-3.98h-6.45L29.67,14.01z"/>
	<path class="st0" d="M8.07,4h25.86v4.05H8.07V4z"/>
	<path class="st0" d="M21.99,10.04v3.98h5.59l-1.33-3.98H21.99z"/>
	<path class="st0" d="M20,10.04h-4.26l-1.33,3.98H20V10.04z"/>
	<path class="st0" d="M13.65,10.04H7.2l-2.72,3.98h7.84L13.65,10.04z"/>
	<path class="st0" d="M21.99,18.61l2.99,1.49l2.99-1.49v-2.61H22L21.99,18.61L21.99,18.61z"/>
	<path class="st0" d="M29.95,16.01v2.61l2.99,1.49l5.04-2.49v-1.61H29.95z"/>
	<path class="st0" d="M12.04,18.61v-2.61H4.02v1.61l5.04,2.49L12.04,18.61z"/>
	<path class="st0" d="M14.03,18.61l2.99,1.49l2.99-1.49v-2.61h-5.97L14.03,18.61L14.03,18.61z"/>
</g>
</svg>
