<?xml version="1.0" encoding="utf-8"?>
<!-- Generator: Adobe Illustrator 25.0.1, SVG Export Plug-In . SVG Version: 6.00 Build 0)  -->
<svg version="1.1" id="Layer_1" xmlns="http://www.w3.org/2000/svg" xmlns:xlink="http://www.w3.org/1999/xlink" x="0px" y="0px"
	 viewBox="0 0 18 18" style="enable-background:new 0 0 18 18;" xml:space="preserve">
<style type="text/css">
	.st0{fill:#010101;}
</style>
<g>
	<path class="st0" d="M17.78,16.72l-4.33-4.33c1.07-1.31,1.72-2.98,1.72-4.81C15.17,3.4,11.77,0,7.59,0C3.39,0,0,3.4,0,7.59
		s3.39,7.59,7.59,7.59c1.83,0,3.5-0.64,4.8-1.72l4.33,4.32c0.29,0.29,0.77,0.29,1.06,0C18.07,17.49,18.07,17.01,17.78,16.72z
		 M7.59,13.66c-3.35,0-6.08-2.73-6.08-6.08s2.73-6.08,6.08-6.08c3.35,0,6.08,2.73,6.08,6.08S10.94,13.66,7.59,13.66z"/>
</g>
</svg>
