<?xml version="1.0" encoding="utf-8"?>
<!-- Generator: Adobe Illustrator 25.0.1, SVG Export Plug-In . SVG Version: 6.00 Build 0)  -->
<svg version="1.1" id="Layer_1" xmlns="http://www.w3.org/2000/svg" xmlns:xlink="http://www.w3.org/1999/xlink" x="0px" y="0px"
	 viewBox="0 0 122 122" style="enable-background:new 0 0 122 122;" xml:space="preserve">
<style type="text/css">
	.st0{fill:#2B3C7A;}
</style>
<g>
	<path class="st0" d="M60.83,79.33c0.25-0.76,0.9-1.32,1.7-1.44l12.38-1.79c-8.05-6.52-18.09-10.06-28.43-10.02h-0.09
		c-12.26,0.03-23.69,4.81-32.14,13.45C6.14,87.9,1.46,99.15,1,111.48l72.61-0.15l2.63-15.37l-14.89-14.5
		C60.77,80.91,60.57,80.08,60.83,79.33z"/>
	<path class="st0" d="M108.32,93.75L121,81.43l-17.46-2.54c-0.68-0.1-1.27-0.52-1.58-1.13l-7.82-15.82l-7.82,15.82
		c-0.3,0.62-0.9,1.05-1.58,1.13l-17.46,2.54L79.9,93.75c0.5,0.47,0.73,1.17,0.6,1.85L77.52,113l15.61-8.2
		c0.3-0.16,0.64-0.24,0.98-0.24s0.68,0.09,0.98,0.24l15.61,8.2l-2.98-17.4C107.6,94.92,107.83,94.23,108.32,93.75z"/>
	<path class="st0" d="M46.39,61.94c14.62,0,26.47-11.85,26.47-26.47S61.01,9,46.39,9S19.93,20.85,19.93,35.47
		S31.78,61.94,46.39,61.94z"/>
</g>
</svg>
