<?xml version="1.0" encoding="utf-8"?>
<!-- Generator: Adobe Illustrator 25.0.1, SVG Export Plug-In . SVG Version: 6.00 Build 0)  -->
<svg version="1.1" id="Layer_1" xmlns="http://www.w3.org/2000/svg" xmlns:xlink="http://www.w3.org/1999/xlink" x="0px" y="0px"
	 viewBox="0 0 122 122" style="enable-background:new 0 0 122 122;" xml:space="preserve">
<style type="text/css">
	.st0{fill:#2B3C7A;}
</style>
<path class="st0" d="M61,9C32.32,9,9,32.32,9,61s23.32,52,52,52s52-23.32,52-52S89.68,9,61,9z M85.73,87.9
	c-0.84,0.84-1.95,1.27-3.06,1.27s-2.22-0.43-3.06-1.27L57.94,66.23c-0.82-0.81-1.27-1.91-1.27-3.06V35c0-2.4,1.94-4.33,4.33-4.33
	s4.33,1.94,4.33,4.33v26.38l20.4,20.4C87.43,83.46,87.43,86.2,85.73,87.9z"/>
</svg>
